<svg version="1.1" id="Layer_1" xmlns="http://www.w3.org/2000/svg" xmlns:xlink="http://www.w3.org/1999/xlink" x="0px" y="0px" viewBox="0 0 80 80" style="enable-background:new 0 0 80 80;" xml:space="preserve">
<path style="fill:none;stroke:#7A4F34;stroke-linecap:round;stroke-miterlimit:10;" d="M23.375,46.875
	c1.25-26.75,17.002-33.72,22.663-39.638"></path>
<path style="fill:none;stroke:#7A4F34;stroke-linecap:round;stroke-miterlimit:10;" d="M51.625,46.5
	c-6-8.375-15.558-18.999-3.335-37.719"></path>
<g>
	<path style="fill:#BAE0BD;" d="M62.982,25.5c-3.421,0-6.425-0.889-8.687-2.57c-6.367-4.732-5.9-12.56-5.687-14.429
		c1.645,0.018,8.18,0.328,14.021,3.927c3.229,1.988,4.922,5.042,6.559,7.995c0.675,1.218,1.317,2.377,2.045,3.416
		C68.808,24.884,65.771,25.5,62.982,25.5L62.982,25.5z"></path>
	<path style="fill:#5E9C76;" d="M49.063,9.012c2.143,0.073,8.016,0.583,13.307,3.842c3.116,1.92,4.776,4.915,6.382,7.811
		c0.573,1.033,1.123,2.025,1.724,2.944C68.212,24.489,65.496,25,62.983,25c-2.31,0-5.64-0.429-8.388-2.471
		C48.874,18.277,48.873,11.383,49.063,9.012 M48.441,8c-0.175,0-0.268,0.003-0.268,0.003s-1.74,9.705,5.825,15.328
		C56.603,25.267,59.833,26,62.983,26c3.392,0,6.69-0.849,9.017-1.96c-2.682-3.524-4.184-9.006-9.106-12.038
		C56.734,8.207,49.867,8,48.441,8L48.441,8z"></path>
</g>
<g>
	<path style="fill:#F5CE85;" d="M45.982,12.654c-1.725-1.27-2.843-2.029-3.441-2.421c2.353-2.364,7.2-6.852,8.139-7.719
		c0.398,0.056,1.419,0.324,2.285,1.619c-0.389,0.516-1.157,1.37-2.026,2.335C49.139,8.469,46.942,10.909,45.982,12.654z"></path>
	<path style="fill:#7A4F34;" d="M50.83,3.056c0.355,0.097,0.944,0.358,1.508,1.065c-0.419,0.511-1.081,1.246-1.769,2.01
		c-1.657,1.84-3.644,4.048-4.736,5.793c-1.1-0.802-1.927-1.377-2.506-1.769C45.644,7.866,49.635,4.162,50.83,3.056 M50.506,2
		C50.502,2,50.5,2,50.5,2s-6.375,5.875-8.748,8.323c0,0,1.354,0.816,4.415,3.09c1.088-2.596,6.535-7.884,7.398-9.264
		C52.322,2.036,50.62,2,50.506,2L50.506,2z"></path>
</g>
<g>
	<path style="fill:#F78F8F;" d="M56.291,77.5c-8.103,0-15.623-4.456-19.158-11.352c-6.812-13.289,1.267-19.355,5.056-21.347
		c1.633-0.858,3.181-0.973,4.479-0.973c0.252,0,1.348,0.016,1.348,0.016c0.737,0,1.327-0.052,1.805-0.302
		c0.618-0.325,1.049-0.979,1.595-1.806c0.801-1.215,1.798-2.728,3.814-3.788c1.333-0.7,3.714-1.448,6.399-1.448
		c4.034,0,9.693,1.656,13.736,9.545c4.611,8.995,1.591,23.354-9.354,29.105C63.085,76.688,59.725,77.5,56.291,77.5z"></path>
	<path style="fill:#C74343;" d="M61.629,36v1h0c3.895,0,9.362,1.609,13.291,9.273c2.475,4.829,2.762,10.604,0.808,16.263
		c-1.861,5.39-5.488,9.826-9.951,12.171C62.924,76.207,59.643,77,56.292,77c-7.918,0-15.263-4.349-18.714-11.08
		c-6.608-12.891,1.186-18.753,4.843-20.675c1.536-0.807,3.008-0.916,4.246-0.916c0.249,0,0.488,0.004,0.717,0.008
		c0.22,0.004,0.431,0.007,0.631,0.007c0.812,0,1.469-0.061,2.037-0.36c0.732-0.384,1.217-1.121,1.779-1.973
		c0.77-1.167,1.728-2.62,3.631-3.62C56.741,37.719,59.033,37,61.628,37L61.629,36 M61.628,36c-2.863,0-5.301,0.807-6.631,1.506
		c-3.449,1.812-4.091,4.9-5.41,5.593c-0.391,0.205-0.925,0.245-1.572,0.245c-0.408,0-0.859-0.016-1.348-0.016
		c-1.351,0-2.979,0.121-4.711,1.031c-5.204,2.735-11.713,9.444-5.268,22.017C40.533,73.877,48.416,78,56.292,78
		c3.43,0,6.858-0.782,9.951-2.407c9.54-5.013,15.087-19.008,9.567-29.776C71.825,38.043,66.186,36,61.628,36L61.628,36z"></path>
</g>
<g>
	<path style="fill:#F78F8F;" d="M24,77.5c-11.453,0-21.5-9.755-21.5-20.875C2.5,42.071,12.407,40.5,16.667,40.5
		c2.19,0,3.778,0.848,5.054,1.529c0.885,0.473,1.583,0.846,2.279,0.846c0.693,0,1.406-0.387,2.231-0.836
		c1.262-0.686,2.832-1.539,5.102-1.539c3.94,0,14.167,2.897,14.167,16.125C45.5,66.479,36.306,77.5,24,77.5z"></path>
	<path style="fill:#C74343;" d="M31.333,41C31.47,41,45,41.179,45,56.625c0,5.281-2.364,10.389-6.657,14.382
		C34.248,74.816,29.02,77,24,77C12.813,77,3,67.479,3,56.625c0-5.807,1.607-10.084,4.777-12.712C10.835,41.378,14.659,41,16.667,41
		c2.065,0,3.592,0.815,4.818,1.47c0.909,0.485,1.693,0.905,2.515,0.905c0.821,0,1.585-0.415,2.47-0.897
		C27.682,41.82,29.191,41,31.333,41 M31.333,40c-3.879,0-5.851,2.375-7.333,2.375S20.435,40,16.667,40C10.814,40,2,42.841,2,56.625
		C2,68.43,12.533,78,24,78c10.73,0,22-9.57,22-21.375C46,42.748,35.212,40,31.333,40L31.333,40z"></path>
</g>
</svg>
